<svg width="30" height="31" viewBox="0 0 30 31" fill="none" xmlns="http://www.w3.org/2000/svg">
<g id="Frame" clip-path="url(#clip0_892_38)">
<path id="Vector" d="M29.25 13.8645C29.2491 13.8638 29.2484 13.8629 29.2477 13.8622L17.0101 1.62502C16.4884 1.10316 15.7949 0.815918 15.0573 0.815918C14.3196 0.815918 13.6261 1.10316 13.1042 1.62502L0.872986 13.856C0.868866 13.8601 0.864517 13.8645 0.860626 13.8686C-0.21054 14.9459 -0.208709 16.6939 0.865891 17.7685C1.35684 18.2597 2.00504 18.544 2.69832 18.5739C2.7267 18.5767 2.75508 18.5781 2.78369 18.5781H3.27121V27.5836C3.27121 29.366 4.72141 30.8159 6.50371 30.8159H11.2915C11.7769 30.8159 12.1704 30.4222 12.1704 29.937V22.8765C12.1704 22.0632 12.8321 21.4018 13.6453 21.4018H16.4692C17.2824 21.4018 17.9439 22.0632 17.9439 22.8765V29.937C17.9439 30.4222 18.3374 30.8159 18.8228 30.8159H23.6106C25.3931 30.8159 26.8431 29.366 26.8431 27.5836V18.5781H27.2953C28.0328 18.5781 28.7263 18.2908 29.2484 17.7687C30.3241 16.6925 30.3246 14.9414 29.25 13.8645ZM28.0053 16.5259C27.8156 16.7157 27.5634 16.8203 27.2953 16.8203H25.9642C25.4787 16.8203 25.0852 17.2137 25.0852 17.6992V27.5836C25.0852 28.3966 24.4238 29.0581 23.6106 29.0581H19.7017V22.8765C19.7017 21.0942 18.2518 19.644 16.4692 19.644H13.6453C11.8627 19.644 10.4126 21.0942 10.4126 22.8765V29.0581H6.50371C5.69072 29.0581 5.02902 28.3966 5.02902 27.5836V17.6992C5.02902 17.2137 4.63557 16.8203 4.15012 16.8203H2.84183C2.82809 16.8193 2.81459 16.8186 2.80063 16.8184C2.53879 16.8138 2.2932 16.7099 2.10918 16.5257C1.71779 16.1343 1.71779 15.4973 2.10918 15.1057C2.10941 15.1057 2.10941 15.1055 2.10963 15.1052L2.11032 15.1046L14.3475 2.86784C14.537 2.6781 14.789 2.57373 15.0573 2.57373C15.3253 2.57373 15.5773 2.6781 15.767 2.86784L28.0014 15.102C28.0033 15.1039 28.0053 15.1057 28.0072 15.1075C28.3965 15.4996 28.3958 16.1352 28.0053 16.5259Z" fill="#2D2D2D"/>
</g>
<defs>
<clipPath id="clip0_892_38">
<rect width="30" height="30" fill="white" transform="translate(0 0.874512)"/>
</clipPath>
</defs>
</svg>
