<svg width="30" height="30" viewBox="0 0 30 30" fill="none" xmlns="http://www.w3.org/2000/svg">
<g id="grid 1" clip-path="url(#clip0_4_317)">
<g id="00-38-apps,-arrange,-array,-grid,-layout,-menu,-view">
<path id="Shape" d="M27.5 15.8333C28.8314 15.8333 29.9958 16.9172 30 18.3333V27.5C30 28.8314 28.9296 30 27.5 30H18.3333C17.0019 30 15.8376 28.9153 15.8333 27.5V18.3333C15.8333 17.0019 16.9068 15.8333 18.3333 15.8333H27.5ZM11.6667 15.8333C12.9981 15.8333 14.1624 16.9172 14.1667 18.3333V27.5C14.1667 28.8314 13.0963 30 11.6667 30H2.5C1.1686 30 0.00424391 28.9153 0 27.5V18.3333C0 17.0019 1.07351 15.8333 2.5 15.8333H11.6667ZM27.5 17.5H18.3333C17.906 17.5 17.5 17.847 17.5 18.3333V27.5C17.5 27.9274 17.8356 28.3333 18.3333 28.3333H27.5C27.9274 28.3333 28.3333 27.9977 28.3333 27.5V18.3333C28.3333 17.906 28.0056 17.5 27.5 17.5ZM11.6667 17.5H2.5C2.07264 17.5 1.66667 17.847 1.66667 18.3333V27.5C1.66667 27.9274 2.00229 28.3333 2.5 28.3333H11.6667C12.094 28.3333 12.5 27.9977 12.5 27.5V18.3333C12.5 17.906 12.1723 17.5 11.6667 17.5ZM27.5 0C28.8314 0 29.9958 1.08389 30 2.5V11.6667C30 12.9981 28.9296 14.1667 27.5 14.1667H18.3333C17.0019 14.1667 15.8376 13.082 15.8333 11.6667V2.5C15.8333 1.1686 16.9068 0 18.3333 0H27.5ZM11.6667 0C12.9981 0 14.1624 1.08389 14.1667 2.5V11.6667C14.1667 12.9981 13.0963 14.1667 11.6667 14.1667H2.5C1.1686 14.1667 0.00424391 13.082 0 11.6667V2.5C0 1.1686 1.07351 0 2.5 0H11.6667ZM27.5 1.66667H18.3333C17.906 1.66667 17.5 2.01366 17.5 2.5V11.6667C17.5 12.094 17.8356 12.5 18.3333 12.5H27.5C27.9274 12.5 28.3333 12.1644 28.3333 11.6667V2.5C28.3333 2.07264 28.0056 1.66667 27.5 1.66667ZM11.6667 1.66667H2.5C2.07264 1.66667 1.66667 2.01366 1.66667 2.5V11.6667C1.66667 12.094 2.00229 12.5 2.5 12.5H11.6667C12.094 12.5 12.5 12.1644 12.5 11.6667V2.5C12.5 2.07264 12.1723 1.66667 11.6667 1.66667Z" fill="#2D2D2D"/>
</g>
</g>
<defs>
<clipPath id="clip0_4_317">
<rect width="30" height="30" fill="white"/>
</clipPath>
</defs>
</svg>
