<svg width="32" height="33" viewBox="0 0 32 33" fill="none" xmlns="http://www.w3.org/2000/svg">
<g id="fi_11482468" clip-path="url(#clip0_4_311)">
<g id="Group">
<path id="Vector" d="M30.0624 14.0274C29.869 13.9158 29.6308 13.9158 29.4374 14.0274L27.7732 14.987V8.25194C27.7732 8.02898 27.6541 7.82287 27.4607 7.71139L15.0116 0.533121C14.8183 0.421577 14.58 0.421577 14.3866 0.533121L1.9375 7.71133C1.74412 7.82281 1.625 8.02892 1.625 8.25188V22.6085C1.625 22.8315 1.74412 23.0376 1.9375 23.1491L14.3866 30.3273C14.4833 30.3831 14.5912 30.4109 14.6991 30.4109C14.8071 30.4109 14.9149 30.3831 15.0116 30.3273L18.9886 28.0341V31.7843C18.9886 32.0073 19.1077 32.2134 19.3011 32.3249C19.3978 32.3807 19.5057 32.4085 19.6136 32.4085C19.7216 32.4085 19.8294 32.3807 19.9261 32.3249L30.0625 26.4801C30.2558 26.3686 30.375 26.1625 30.375 25.9396V14.5679C30.3749 14.345 30.2558 14.1389 30.0624 14.0274ZM14.6991 14.7095L12.1167 13.2204L23.3158 6.76292L25.8982 8.25194L14.6991 14.7095ZM6.98692 11.704L10.2417 13.5807V16.681L8.84172 14.9864C8.69253 14.8058 8.45466 14.724 8.22585 14.7739L6.98692 15.0451V11.704ZM7.61191 10.6229L18.811 4.16539L22.0658 6.0421L10.8667 12.4996L7.61191 10.6229ZM14.6991 1.79444L17.561 3.44463L6.36192 9.90213L3.49999 8.25194L14.6991 1.79444ZM2.875 9.33305L5.73692 10.9833V15.821C5.73692 16.01 5.82267 16.1888 5.97011 16.3073C6.11755 16.4257 6.31092 16.4711 6.49567 16.4307L8.12047 16.0751L10.3846 18.8157C10.5057 18.9623 10.6838 19.0428 10.8668 19.0428C10.9374 19.0427 11.0088 19.0308 11.078 19.0059C11.3261 18.9169 11.4916 18.6818 11.4916 18.4185V14.3016L14.0741 15.7906V28.7056L2.875 22.2482V9.33305ZM15.3241 28.7056V15.7906L26.5233 9.33305V15.7077L24.6818 16.7696L22.4862 15.5036C22.7254 15.3658 22.8522 15.0803 22.7774 14.8014C22.688 14.4684 22.3452 14.2708 22.0119 14.36L20.7313 14.7027C20.3979 14.792 20.2 15.1342 20.2894 15.4672L20.6325 16.7461C20.7073 17.025 20.9598 17.209 21.2358 17.209C21.2893 17.209 21.3438 17.2021 21.3979 17.1875C21.6773 17.1127 21.8614 16.8604 21.8613 16.5847L23.4319 17.4903L19.3012 19.8721C19.1078 19.9835 18.9887 20.1897 18.9887 20.4126V26.5927L15.3241 28.7056ZM29.1249 25.5792L20.2386 30.7032V20.773L29.125 15.6491V25.5792H29.1249Z" fill="#2D2D2D"/>
<path id="Vector_2" d="M22.4268 27.5979C22.5328 27.5979 22.6403 27.5709 22.7386 27.5141L27.25 24.9129C27.5489 24.7405 27.6514 24.3588 27.4787 24.0602C27.3062 23.7618 26.9239 23.6594 26.625 23.8317L22.1136 26.433C21.8147 26.6054 21.7123 26.9871 21.8849 27.2857C22.0006 27.4859 22.2107 27.5979 22.4268 27.5979Z" fill="#2D2D2D"/>
<path id="Vector_3" d="M22.4268 24.6791C22.5328 24.6791 22.6403 24.6521 22.7386 24.5953L24.9943 23.2947C25.2932 23.1223 25.3957 22.7406 25.2231 22.442C25.0505 22.1436 24.6682 22.0412 24.3693 22.2136L22.1136 23.5142C21.8147 23.6866 21.7123 24.0683 21.8849 24.3669C22.0006 24.5671 22.2107 24.6791 22.4268 24.6791Z" fill="#2D2D2D"/>
</g>
</g>
<defs>
<clipPath id="clip0_4_311">
<rect width="32" height="31.959" fill="white" transform="translate(0 0.449463)"/>
</clipPath>
</defs>
</svg>
