<svg width="25" height="25" viewBox="0 0 25 25" fill="none" xmlns="http://www.w3.org/2000/svg">
<g id="fi_6329893">
<g id="Group">
<g id="ARC_93_">
<g id="Group_2">
<path id="Vector" d="M12.4965 18.8469C12.32 18.8469 12.143 18.8422 11.9653 18.8328C8.18519 18.6313 4.74183 16.2711 3.1934 12.8195C3.01683 12.4258 3.19261 11.9637 3.58636 11.7867C3.9805 11.6106 4.44222 11.7859 4.61918 12.1801C5.9305 15.1027 8.84652 17.102 12.0485 17.2723C15.5821 17.4617 18.9301 15.4137 20.3813 12.1801C20.5578 11.7859 21.0203 11.6106 21.4141 11.7867C21.8078 11.9633 21.9836 12.4258 21.8071 12.8195C20.1661 16.4762 16.4707 18.8469 12.4965 18.8469Z" fill="#2D2D2D"/>
</g>
</g>
<g id="ARC_94_">
<g id="Group_3">
<path id="Vector_2" d="M3.90589 13.2816C3.79886 13.2816 3.69027 13.2594 3.58636 13.2129C3.19261 13.0363 3.01683 12.5738 3.1934 12.1801C4.90707 8.36133 8.86332 5.94649 13.0348 6.1668C16.8149 6.36836 20.2582 8.72852 21.8067 12.1801C21.9832 12.5738 21.8075 13.0359 21.4137 13.2129C21.0203 13.3895 20.5578 13.2137 20.3809 12.8195C19.0696 9.89688 16.1536 7.89766 12.9516 7.72735C9.41957 7.53867 6.06996 9.58594 4.61879 12.8195C4.4891 13.1098 4.20433 13.2816 3.90589 13.2816Z" fill="#2D2D2D"/>
</g>
</g>
<g id="CIRCLE_18_">
<g id="Group_4">
<path id="Vector_3" d="M12.5001 15.7195C10.7247 15.7195 9.28015 14.2754 9.28015 12.5C9.28015 10.7246 10.7247 9.28046 12.5001 9.28046C14.2755 9.28046 15.72 10.7246 15.72 12.5C15.72 14.2754 14.2755 15.7195 12.5001 15.7195ZM12.5001 10.843C11.6016 10.843 10.8427 11.6016 10.8427 12.5C10.8427 13.3984 11.6016 14.157 12.5001 14.157C13.3985 14.157 14.1575 13.3984 14.1575 12.5C14.1575 11.6016 13.3985 10.843 12.5001 10.843Z" fill="#2D2D2D"/>
</g>
</g>
</g>
</g>
</svg>
