<svg width="32" height="33" viewBox="0 0 32 33" fill="none" xmlns="http://www.w3.org/2000/svg">
<g id="fi_925748">
<g id="Group">
<g id="Group_2">
<g id="Group_3">
<path id="Vector" d="M31.9551 18.4123C31.955 18.4122 31.955 18.4121 31.9549 18.4119L25.9132 3.26108C25.785 2.93917 25.4196 2.78201 25.0973 2.91007C25.0971 2.91015 25.0968 2.91023 25.0966 2.91039L0.586081 12.6577C0.486124 12.7009 0.399437 12.7697 0.334814 12.8572C0.130973 12.963 0.00219859 13.1724 0 13.4018V29.7133C0 30.0597 0.281262 30.3406 0.628168 30.3406H27.0112C27.3582 30.3406 27.6394 30.0597 27.6394 29.7133V20.8047L31.6044 19.2275C31.9267 19.0991 32.0836 18.7342 31.9551 18.4123ZM26.3831 29.0859H1.25634V14.0292H26.3831V29.0859ZM10.481 12.7776L20.999 8.5918C21.9378 9.57723 23.2385 10.1373 24.6003 10.1426L25.6494 12.7776H10.481ZM27.6394 19.4571V13.4018C27.6394 13.0553 27.3582 12.7744 27.0112 12.7744H27.0012L25.6701 9.4356C25.6553 9.40776 25.6381 9.38126 25.6186 9.35655C25.5512 9.0544 25.2711 8.84823 24.9622 8.87348C23.695 8.98884 22.4554 8.45574 21.6687 7.45689C21.4729 7.21559 21.1288 7.1556 20.8627 7.31637C20.8329 7.31989 20.8033 7.32538 20.7742 7.33268L7.93314 12.4394C7.77775 12.5003 7.65345 12.621 7.58827 12.7744H3.68861L24.9785 4.30815L30.556 18.2952L27.6394 19.4571Z" fill="#2D2D2D"/>
<path id="Vector_2" d="M2.96121 24.8506C4.1808 25.2106 5.13514 26.1626 5.49712 27.3801C5.57651 27.6459 5.82126 27.828 6.09891 27.8281C6.13149 27.826 6.16385 27.8212 6.19565 27.8137C6.22384 27.8217 6.25265 27.8275 6.28171 27.8312H21.3577C21.3837 27.8278 21.4093 27.8226 21.4344 27.8155C21.7482 27.8918 22.0645 27.6996 22.1409 27.3861C22.1412 27.3849 22.1415 27.3838 22.1417 27.3827C22.5027 26.1638 23.4572 25.2106 24.6776 24.85C24.9736 24.7596 25.1575 24.4651 25.1085 24.1599C25.1169 24.1295 25.123 24.0984 25.1268 24.067V19.0481C25.1231 19.0167 25.1168 18.9856 25.1079 18.9553C25.1571 18.65 24.9732 18.3553 24.677 18.2652C23.4566 17.9047 22.5024 16.951 22.1423 15.7319C22.0514 15.4343 21.7536 15.2501 21.4463 15.3015C21.4173 15.2934 21.3877 15.2875 21.3577 15.2839H6.28171C6.25006 15.2877 6.21873 15.294 6.18811 15.3028C5.88258 15.2541 5.58782 15.4377 5.49712 15.7331C5.13585 16.9517 4.18142 17.9047 2.96121 18.2652C2.66526 18.3555 2.48137 18.6501 2.53028 18.9553C2.52212 18.9858 2.51623 19.0168 2.5127 19.0481V24.067C2.51631 24.0965 2.5222 24.1257 2.53028 24.1542C2.47877 24.4614 2.66306 24.7593 2.96121 24.8506ZM3.76903 19.3028C5.03039 18.7969 6.03012 17.7984 6.53674 16.5387H21.1021C21.6089 17.7984 22.6089 18.7969 23.8704 19.3028V23.8123C22.6095 24.3188 21.6099 25.3171 21.1027 26.5765H6.53674C6.02958 25.3171 5.03 24.3188 3.76903 23.8123V19.3028Z" fill="#2D2D2D"/>
<path id="Vector_3" d="M13.8197 25.3218C15.9013 25.3218 17.5887 23.6366 17.5887 21.5576C17.5887 19.4787 15.9013 17.7935 13.8197 17.7935C11.7381 17.7935 10.0507 19.4787 10.0507 21.5576C10.0527 23.6357 11.7389 25.3198 13.8197 25.3218ZM13.8197 19.0482C15.2074 19.0482 16.3323 20.1717 16.3323 21.5576C16.3323 22.9436 15.2074 24.0671 13.8197 24.0671C12.432 24.0671 11.307 22.9436 11.307 21.5576C11.307 20.1717 12.432 19.0482 13.8197 19.0482Z" fill="#2D2D2D"/>
<path id="Vector_4" d="M6.9099 22.4985C7.43026 22.4985 7.85216 22.0772 7.85216 21.5575C7.85216 21.0378 7.43026 20.6165 6.9099 20.6165C6.38955 20.6165 5.96765 21.0378 5.96765 21.5575C5.96765 22.0773 6.38955 22.4985 6.9099 22.4985ZM6.9099 21.2438C7.08336 21.2438 7.22399 21.3843 7.22399 21.5575C7.22399 21.7307 7.08336 21.8712 6.9099 21.8712C6.73645 21.8712 6.59582 21.7307 6.59582 21.5575C6.59582 21.3843 6.73645 21.2438 6.9099 21.2438Z" fill="#2D2D2D"/>
<path id="Vector_5" d="M20.7296 22.4985C21.25 22.4985 21.6719 22.0772 21.6719 21.5575C21.6719 21.0378 21.25 20.6165 20.7296 20.6165C20.2092 20.6165 19.7874 21.0378 19.7874 21.5575C19.7874 22.0773 20.2092 22.4985 20.7296 22.4985ZM20.7296 21.2438C20.9031 21.2438 21.0437 21.3843 21.0437 21.5575C21.0437 21.7307 20.9031 21.8712 20.7296 21.8712C20.5562 21.8712 20.4155 21.7307 20.4155 21.5575C20.4155 21.3843 20.5562 21.2438 20.7296 21.2438Z" fill="#2D2D2D"/>
</g>
</g>
</g>
</g>
</svg>
