<svg width="32" height="32" viewBox="0 0 32 32" fill="none" xmlns="http://www.w3.org/2000/svg">
<g id="printer 1" clip-path="url(#clip0_4_320)">
<path id="Vector" d="M28.6667 24H24.6667C24.2987 24 24 23.7013 24 23.3333C24 22.9653 24.2987 22.6667 24.6667 22.6667H28.6667C29.7693 22.6667 30.6667 21.7693 30.6667 20.6667V11.3333C30.6667 10.2307 29.7693 9.33333 28.6667 9.33333H3.33333C2.23067 9.33333 1.33333 10.2307 1.33333 11.3333V20.6667C1.33333 21.7693 2.23067 22.6667 3.33333 22.6667H7.33333C7.70133 22.6667 8 22.9653 8 23.3333C8 23.7013 7.70133 24 7.33333 24H3.33333C1.49467 24 0 22.504 0 20.6667V11.3333C0 9.496 1.49467 8 3.33333 8H28.6667C30.5053 8 32 9.496 32 11.3333V20.6667C32 22.504 30.5053 24 28.6667 24Z" fill="#2D2D2D"/>
<path id="Vector_2" d="M19.3333 28.0001H11.3333C10.9653 28.0001 10.6666 27.7014 10.6666 27.3334C10.6666 26.9654 10.9653 26.6667 11.3333 26.6667H19.3333C19.7013 26.6667 20 26.9654 20 27.3334C20 27.7014 19.7013 28.0001 19.3333 28.0001Z" fill="#2D2D2D"/>
<path id="Vector_3" d="M19.3333 25.3333H11.3333C10.9653 25.3333 10.6666 25.0347 10.6666 24.6667C10.6666 24.2987 10.9653 24 11.3333 24H19.3333C19.7013 24 20 24.2987 20 24.6667C20 25.0347 19.7013 25.3333 19.3333 25.3333Z" fill="#2D2D2D"/>
<path id="Vector_4" d="M14 22.6666H11.3333C10.9653 22.6666 10.6666 22.3679 10.6666 21.9999C10.6666 21.6319 10.9653 21.3333 11.3333 21.3333H14C14.368 21.3333 14.6666 21.6319 14.6666 21.9999C14.6666 22.3679 14.368 22.6666 14 22.6666Z" fill="#2D2D2D"/>
<path id="Vector_5" d="M24.6666 9.33333C24.2986 9.33333 24 9.03467 24 8.66667V3.33333C24 2.23067 23.1026 1.33333 22 1.33333H9.99996C8.89729 1.33333 7.99996 2.23067 7.99996 3.33333V8.66667C7.99996 9.03467 7.70129 9.33333 7.33329 9.33333C6.96529 9.33333 6.66663 9.03467 6.66663 8.66667V3.33333C6.66663 1.496 8.16129 0 9.99996 0H22C23.8386 0 25.3333 1.496 25.3333 3.33333V8.66667C25.3333 9.03467 25.0346 9.33333 24.6666 9.33333Z" fill="#2D2D2D"/>
<path id="Vector_6" d="M22 31.9999H9.99996C8.16129 31.9999 6.66663 30.5039 6.66663 28.6666V17.9999C6.66663 17.6319 6.96529 17.3333 7.33329 17.3333H24.6666C25.0346 17.3333 25.3333 17.6319 25.3333 17.9999V28.6666C25.3333 30.5039 23.8386 31.9999 22 31.9999ZM7.99996 18.6666V28.6666C7.99996 29.7693 8.89729 30.6666 9.99996 30.6666H22C23.1026 30.6666 24 29.7693 24 28.6666V18.6666H7.99996Z" fill="#2D2D2D"/>
</g>
<defs>
<clipPath id="clip0_4_320">
<rect width="32" height="32" fill="white"/>
</clipPath>
</defs>
</svg>
