<svg width="30" height="31" viewBox="0 0 30 31" fill="none" xmlns="http://www.w3.org/2000/svg">
<g id="Saved designs">
<path id="Vector" d="M28.1463 29.8145C28.0475 29.8145 27.9488 29.7908 27.8575 29.7434L23.8463 27.6535C23.79 27.6248 23.7388 27.5849 23.6925 27.5412L15.7113 19.5726C15.4675 19.3292 15.4675 18.9322 15.7113 18.69L17.6313 16.7712C17.865 16.5365 18.2825 16.5365 18.515 16.7712L26.495 24.741C26.54 24.786 26.5775 24.8371 26.6075 24.8946L28.7 28.9019C28.8263 29.1429 28.7788 29.4387 28.5875 29.631C28.4663 29.7521 28.3075 29.8145 28.1463 29.8145ZM24.5063 26.5924L26.6713 27.7197L25.5425 25.5575L18.07 18.097L17.035 19.1332L24.5063 26.5924Z" fill="#2D2D2D"/>
<path id="Vector_2" d="M15.7112 19.5739L14.5337 18.4004C14.1087 17.9747 13.8387 17.4379 13.7725 16.8898C13.7012 16.2918 13.8837 15.7276 14.2725 15.3393C14.6037 15.0072 15.0637 14.8237 15.5675 14.8237H15.5687C16.1975 14.8237 16.8437 15.1071 17.3387 15.6002L18.5137 16.775L17.63 17.6576L16.455 16.4829C16.1962 16.2257 15.865 16.0721 15.57 16.0721C15.42 16.0759 15.2825 16.0983 15.1575 16.2219C14.9975 16.3817 14.9987 16.6164 15.0137 16.7425C15.045 17.0122 15.195 17.2943 15.4175 17.519L16.595 18.6938L15.7112 19.5739Z" fill="#2D2D2D"/>
<path id="Vector_3" d="M24.7063 24.0972L25.5903 24.9813L23.6691 26.8973L22.785 26.0131L24.7063 24.0972Z" fill="#2D2D2D"/>
<path id="Vector_4" d="M19.0722 18.2097L19.9559 19.0923L18.0362 21.0096L17.1525 20.1269L19.0722 18.2097Z" fill="#2D2D2D"/>
<path id="Vector_5" d="M29.375 13.4705C29.0312 13.4705 28.75 13.1909 28.75 12.8463V9.1011C28.75 7.03625 27.0675 5.3559 25 5.3559H14.5312C14.1862 5.3559 13.9062 5.07626 13.9062 4.7317C13.9062 3.7567 12.3575 1.6107 10.7025 1.6107H4.4525C2.8075 1.6107 1.25 3.31727 1.25 5.12245V12.8475C1.25 13.1921 0.97 13.4717 0.625 13.4717C0.28 13.4717 0 13.1921 0 12.8475V5.12245C0 2.63189 2.1225 0.362305 4.45375 0.362305H10.7037C12.795 0.362305 14.66 2.47834 15.0725 4.1075H25C27.7588 4.1075 30 6.34713 30 9.1011V12.8463C30 13.1909 29.72 13.4705 29.375 13.4705Z" fill="#2D2D2D"/>
<path id="Vector_6" d="M4.40125 30.324C1.9525 30.324 0 28.3752 0 25.9808V12.8464C0 12.5018 0.28 12.2222 0.625 12.2222C0.97 12.2222 1.25 12.5018 1.25 12.8464V25.9808C1.25 27.6874 2.64 29.0756 4.34875 29.0756C6.11125 29.0756 7.5 27.6874 7.5 25.9808V12.2222C7.5 9.81277 9.4625 7.85278 11.875 7.85278H25.625C28.0387 7.85278 30 9.81277 30 12.2222V21.5852C30 21.9285 29.72 22.2094 29.375 22.2094C29.0312 22.2094 28.75 21.9285 28.75 21.5852V12.2222C28.75 10.5019 27.3487 9.10118 25.625 9.10118H11.875C10.1538 9.10118 8.75 10.5019 8.75 12.2222V25.9808C8.75 28.3752 6.79875 30.324 4.40125 30.324Z" fill="#2D2D2D"/>
<path id="Vector_7" d="M21.25 30.3238H5C4.655 30.3238 4.375 30.0429 4.375 29.6996C4.375 29.3563 4.65625 29.0754 5 29.0754H21.25C21.595 29.0754 21.875 29.3563 21.875 29.6996C21.875 30.0429 21.595 30.3238 21.25 30.3238Z" fill="#2D2D2D"/>
</g>
</svg>
