<svg width="24" height="24" viewBox="0 0 24 24" fill="none" xmlns="http://www.w3.org/2000/svg">
<g id="fi_2984960">
<g id="Group">
<path id="Vector" d="M12.5061 21.6575C8.64364 21.6579 5.08192 19.4446 3.37606 15.961C1.64989 12.4349 2.17255 8.03722 4.67723 5.01808C7.17919 2.00206 11.2468 0.686047 15.039 1.66534C15.4565 1.77316 15.7077 2.19933 15.6003 2.6173C15.4925 3.03527 15.0659 3.28605 14.6483 3.17862C11.4405 2.35011 7.99755 3.46339 5.87997 6.01613C3.76122 8.57042 3.31903 12.2911 4.77958 15.2747C6.23466 18.2466 9.44442 20.1825 12.739 20.0927C16.0331 20.0028 19.0225 17.9993 20.355 14.9888C21.1374 13.2208 21.303 11.2189 20.8206 9.35128C20.7128 8.9337 20.964 8.50753 21.3819 8.39933C21.7987 8.29113 22.2257 8.54269 22.3339 8.96066C22.9034 11.1673 22.7085 13.5329 21.7843 15.6212C20.2093 19.1798 16.6753 21.5482 12.7819 21.6544C12.6897 21.6564 12.5975 21.6575 12.5061 21.6575Z" fill="white"/>
</g>
<g id="Group_2">
<path id="Vector_2" d="M12.4999 13.9374C12.2999 13.9374 12.0999 13.8612 11.9476 13.7085C11.6425 13.4034 11.6425 12.9089 11.9476 12.6038L21.3226 3.22881C21.6272 2.92373 22.1226 2.92373 22.4272 3.22881C22.7323 3.53389 22.7323 4.02842 22.4272 4.3335L13.0522 13.7085C12.8999 13.8608 12.6999 13.9374 12.4999 13.9374Z" fill="white"/>
</g>
<g id="Group_3">
<path id="Vector_3" d="M12.4999 13.9374C12.2999 13.9374 12.0999 13.8612 11.9476 13.7085L8.63311 10.394C8.32803 10.089 8.32803 9.59443 8.63311 9.28936C8.93779 8.98428 9.43311 8.98428 9.73779 9.28936L13.0522 12.6038C13.3573 12.9089 13.3573 13.4034 13.0522 13.7085C12.8999 13.8608 12.6999 13.9374 12.4999 13.9374Z" fill="white"/>
</g>
</g>
</svg>
