<svg width="30" height="31" viewBox="0 0 30 31" fill="none" xmlns="http://www.w3.org/2000/svg">
<g id="Settings">
<path id="Vector" d="M0.20033 20.627L3.20249 25.7881C3.37926 26.0867 3.6574 26.3122 3.98642 26.4235C4.16014 26.4805 4.34401 26.5 4.52583 26.4806C4.70764 26.4612 4.88326 26.4035 5.04104 26.3112L8.12405 24.9068C8.77489 25.3683 9.46682 25.7691 10.1911 26.104L10.504 29.5237C10.5027 29.5482 10.5027 29.5728 10.504 29.5974C10.5628 29.9245 10.7326 30.2214 10.9849 30.4382C11.2371 30.6549 11.5564 30.7783 11.889 30.7876H17.8898C18.2435 30.7888 18.5847 30.6568 18.8453 30.418C19.1059 30.1792 19.2668 29.8511 19.296 29.4991L19.6054 26.104C20.3338 25.7806 21.0276 25.3841 21.6759 24.9209L24.773 26.3463H24.8046C25.1236 26.4819 25.4808 26.4976 25.8104 26.3904C26.14 26.2833 26.4196 26.0606 26.5975 25.7635L29.5821 20.6341C29.7642 20.3263 29.8255 19.9621 29.754 19.6118C29.6826 19.2615 29.4835 18.9502 29.1954 18.7382L26.5975 16.7615C26.7157 15.956 26.7157 15.1375 26.5975 14.332L29.4098 12.3413C29.6985 12.1298 29.8983 11.8187 29.9704 11.4684C30.0425 11.1181 29.9818 10.7535 29.8 10.4454L26.7205 5.29141C26.638 5.1337 26.5246 4.99417 26.387 4.88113C26.2494 4.76809 26.0904 4.68384 25.9195 4.6334C25.7486 4.58296 25.5694 4.56735 25.3923 4.58751C25.2153 4.60766 25.0441 4.66317 24.889 4.75073L21.806 6.15509C21.1549 5.69498 20.463 5.29541 19.7389 4.96138L19.4296 1.54176C19.4296 1.51719 19.4296 1.49261 19.4296 1.46804C19.3708 1.14093 19.2009 0.844035 18.9487 0.627278C18.6964 0.410521 18.3772 0.287124 18.0445 0.277839H12.0332C11.6789 0.276705 11.3373 0.409145 11.0766 0.64868C10.8159 0.888216 10.6554 1.2172 10.627 1.56985L10.3177 4.96138C9.58526 5.28644 8.88794 5.68524 8.23654 6.15158L5.15353 4.73669H5.1219C4.80262 4.60394 4.44607 4.59088 4.11791 4.69991C3.78976 4.80894 3.5121 5.03272 3.33607 5.33003L0.344462 10.4454C0.160866 10.7567 0.100542 11.1253 0.175357 11.4788C0.250171 11.8322 0.454709 12.1449 0.748733 12.3553L3.53996 14.3355C3.42384 15.1318 3.42384 15.9407 3.53996 16.737L0.583509 18.7382C0.297123 18.95 0.0994689 19.2603 0.0287043 19.6091C-0.0420603 19.9579 0.019083 20.3206 0.20033 20.627ZM1.41314 19.8792L4.69302 17.6463C4.80529 17.5705 4.89323 17.4638 4.94624 17.3393C4.99926 17.2147 5.01509 17.0774 4.99183 16.9441C4.91344 16.4798 4.86879 16.0105 4.85824 15.5397C4.86754 15.0596 4.91219 14.5809 4.99183 14.1073C5.0106 13.9793 4.99362 13.8486 4.94276 13.7297C4.89189 13.6107 4.80911 13.5081 4.70356 13.4332L1.58188 11.2143C1.57279 11.2075 1.56571 11.1983 1.56138 11.1878C1.55704 11.1773 1.55563 11.1659 1.55728 11.1546L4.54537 6.02168C4.55925 6.01852 4.57367 6.01852 4.58755 6.02168L8.04671 7.61212C8.16632 7.66689 8.29891 7.68704 8.42942 7.67029C8.55993 7.65353 8.68311 7.60053 8.78495 7.51732C9.54135 6.92757 10.3768 6.44658 11.2668 6.08838C11.3832 6.03824 11.4839 5.9576 11.5581 5.85501C11.6324 5.75241 11.6775 5.63168 11.6887 5.50557L12.0402 1.68922H18.0164C18.0299 1.70284 18.0397 1.7198 18.0445 1.73837L18.3961 5.51611C18.4072 5.64221 18.4524 5.76295 18.5266 5.86554C18.6009 5.96814 18.7015 6.04877 18.8179 6.09892C19.7085 6.47823 20.5491 6.9652 21.3209 7.54892C21.4208 7.62269 21.5385 7.6687 21.662 7.68227C21.7855 7.69584 21.9104 7.67648 22.024 7.62616L25.5112 6.02519L28.5802 11.1792C28.5828 11.1931 28.5828 11.2074 28.5802 11.2213L25.4304 13.4332C25.3254 13.5079 25.243 13.6099 25.1922 13.7281C25.1413 13.8464 25.124 13.9764 25.1421 14.1038C25.2207 14.5786 25.2642 15.0585 25.2722 15.5397C25.2629 16.0198 25.2183 16.4986 25.1386 16.9722C25.1183 17.0988 25.1331 17.2286 25.1815 17.3475C25.2298 17.4663 25.3098 17.5696 25.4128 17.6463L28.3552 19.8617C28.3643 19.8685 28.3714 19.8776 28.3757 19.8881C28.38 19.8986 28.3815 19.9101 28.3798 19.9213L25.3777 25.0543H25.3355L21.8763 23.4638C21.7567 23.4091 21.6241 23.3889 21.4936 23.4057C21.3631 23.4224 21.2399 23.4754 21.1381 23.5586C20.3816 24.1482 19.5462 24.6292 18.6562 24.9876C18.5398 25.0377 18.4392 25.1184 18.3649 25.221C18.2906 25.3235 18.2455 25.4443 18.2344 25.5704L17.8828 29.3867H11.9066C11.8936 29.3741 11.8839 29.3584 11.8785 29.3411L11.527 25.5634C11.5163 25.4417 11.474 25.3249 11.4044 25.2246C11.3347 25.1242 11.24 25.0437 11.1297 24.9911C10.2394 24.6127 9.39886 24.1269 8.62675 23.5446C8.52685 23.4708 8.40915 23.4248 8.28565 23.4112C8.16214 23.3977 8.03725 23.417 7.92367 23.4674L4.43639 25.0683L1.41314 19.9143C1.41314 19.9143 1.42721 19.8687 1.41314 19.8792Z" fill="#2D2D2D"/>
<path id="Vector_2" d="M14.9967 20.8693C16.0521 20.8693 17.0839 20.5567 17.9614 19.9711C18.839 19.3855 19.523 18.5531 19.9269 17.5793C20.3308 16.6054 20.4364 15.5338 20.2305 14.5C20.0246 13.4662 19.5164 12.5165 18.7701 11.7712C18.0238 11.0258 17.0729 10.5183 16.0378 10.3126C15.0026 10.107 13.9296 10.2125 12.9545 10.6159C11.9794 11.0193 11.146 11.7024 10.5596 12.5788C9.97327 13.4553 9.6603 14.4857 9.6603 15.5398C9.65181 16.242 9.78404 16.9388 10.0492 17.5893C10.3144 18.2397 10.7071 18.8306 11.2044 19.3272C11.7016 19.8238 12.2933 20.2161 12.9445 20.4809C13.5958 20.7457 14.2935 20.8778 14.9967 20.8693ZM14.9967 11.6146C15.774 11.6146 16.5339 11.8448 17.1802 12.2761C17.8265 12.7074 18.3303 13.3204 18.6277 14.0377C18.9252 14.7549 19.003 15.5441 18.8514 16.3055C18.6997 17.0669 18.3254 17.7663 17.7758 18.3153C17.2261 18.8642 16.5258 19.2381 15.7634 19.3895C15.001 19.541 14.2108 19.4632 13.4926 19.1662C12.7745 18.8691 12.1607 18.366 11.7288 17.7205C11.297 17.075 11.0665 16.3161 11.0665 15.5398C11.0608 15.0227 11.1586 14.5098 11.3541 14.031C11.5496 13.5522 11.8389 13.1173 12.205 12.7517C12.5711 12.386 13.0066 12.0971 13.486 11.9019C13.9654 11.7066 14.479 11.6089 14.9967 11.6146Z" fill="#2D2D2D"/>
</g>
</svg>
