<svg width="32" height="32" viewBox="0 0 32 32" fill="none" xmlns="http://www.w3.org/2000/svg">
<g id="fi_3169263" clip-path="url(#clip0_4_295)">
<path id="Vector" d="M16 9.33325C15.9186 9.33325 15.8373 9.31859 15.76 9.28925L7.09329 5.95592C6.83596 5.85725 6.66663 5.60925 6.66663 5.33325C6.66663 5.05725 6.83596 4.80925 7.09329 4.71059L15.76 1.37725C15.9146 1.31859 16.084 1.31859 16.2386 1.37725L24.9053 4.71059C25.164 4.80925 25.3333 5.05725 25.3333 5.33325C25.3333 5.60925 25.164 5.85725 24.9066 5.95592L16.24 9.28925C16.1626 9.31859 16.0813 9.33325 16 9.33325ZM9.19063 5.33325L16 7.95192L22.8093 5.33325L16 2.71459L9.19063 5.33325Z" fill="#2D2D2D"/>
<path id="Vector_2" d="M16 20.0001C15.9186 20.0001 15.8373 19.9854 15.76 19.9561L7.09329 16.6227C6.83596 16.5241 6.66663 16.2761 6.66663 16.0001V5.33341C6.66663 4.96541 6.96529 4.66675 7.33329 4.66675C7.70129 4.66675 7.99996 4.96541 7.99996 5.33341V15.5427L16 18.6201L24 15.5427V5.33341C24 4.96541 24.2986 4.66675 24.6666 4.66675C25.0346 4.66675 25.3333 4.96541 25.3333 5.33341V16.0001C25.3333 16.2761 25.164 16.5241 24.9066 16.6227L16.24 19.9561C16.1626 19.9854 16.0813 20.0001 16 20.0001Z" fill="#2D2D2D"/>
<path id="Vector_3" d="M16 20C15.632 20 15.3334 19.7013 15.3334 19.3333V8.66667C15.3334 8.29867 15.632 8 16 8C16.368 8 16.6667 8.29867 16.6667 8.66667V19.3333C16.6667 19.7013 16.368 20 16 20Z" fill="#2D2D2D"/>
<path id="Vector_4" d="M14 29.3333C13.7974 29.3333 13.5974 29.2413 13.4667 29.0666C13.2454 28.7719 13.3054 28.3546 13.6 28.1333L15.5547 26.6666L13.6 25.1999C13.3054 24.9786 13.2454 24.5613 13.4667 24.2666C13.688 23.9719 14.1054 23.9133 14.4 24.1333L17.0667 26.1333C17.2347 26.2586 17.3334 26.4573 17.3334 26.6666C17.3334 26.8759 17.2347 27.0746 17.0667 27.1999L14.4 29.1999C14.28 29.2893 14.14 29.3333 14 29.3333Z" fill="#2D2D2D"/>
<path id="Vector_5" d="M16 27.3333C13.984 27.3333 12.076 27.2373 10.328 27.0493C7.90933 26.8053 0 25.7679 0 22.6666C0 21.4013 1.30533 20.3439 3.87733 19.5253C4.3 19.3946 4.75333 19.7239 4.75333 20.1613C4.75333 20.4839 4.52933 20.7533 4.22533 20.8146C2.092 21.5013 1.33333 22.2413 1.33333 22.6666C1.33333 23.5546 4.16667 25.0879 10.4667 25.7226C12.1707 25.9066 14.0307 25.9999 16 25.9999C16.368 25.9999 16.6667 26.2986 16.6667 26.6666C16.6667 27.0346 16.368 27.3333 16 27.3333Z" fill="#2D2D2D"/>
<path id="Vector_6" d="M20.6533 27.1333C20.3093 27.1333 20.0173 26.8693 19.9893 26.5213C19.96 26.1546 20.2333 25.832 20.6 25.8026C27.4667 25.2413 30.6667 23.6 30.6667 22.6666C30.6667 22.2373 29.8947 21.4893 27.7173 20.796C27.3667 20.684 27.1733 20.3093 27.284 19.9586C27.396 19.608 27.7693 19.4146 28.1213 19.5253C30.6947 20.344 32 21.4013 32 22.6666C32 25.9533 23.3573 26.9146 20.708 27.132C20.6893 27.1333 20.6707 27.1333 20.6533 27.1333Z" fill="#2D2D2D"/>
</g>
<defs>
<clipPath id="clip0_4_295">
<rect width="32" height="32" fill="white"/>
</clipPath>
</defs>
</svg>
