<svg width="14" height="15" viewBox="0 0 14 15" fill="none" xmlns="http://www.w3.org/2000/svg">
<path id="Vector" d="M13.8274 13.7753L10.2084 10.1542C11.0452 9.14952 11.5473 7.87271 11.5473 6.44939C11.5473 3.24691 8.95331 0.672363 5.77363 0.672363C2.59395 0.672363 0 3.24691 0 6.42846C0 9.61001 2.59395 12.2055 5.77363 12.2055C7.1752 12.2055 8.47217 11.7031 9.45536 10.8659L13.0953 14.487C13.1999 14.5916 13.3254 14.6544 13.4718 14.6544C13.6182 14.6544 13.7437 14.5916 13.8274 14.487C14.0575 14.3195 14.0575 13.9846 13.8274 13.7753ZM1.06687 6.42846C1.06687 3.81205 3.17968 1.69799 5.79455 1.69799C8.40941 1.69799 10.5222 3.81205 10.5222 6.42846C10.5222 9.04486 8.38849 11.1589 5.77363 11.1589C3.15876 11.1589 1.06687 9.04486 1.06687 6.42846Z" fill="#D9D9D9"/>
</svg>
